# xmcd
#
# Track frame offsets:
#	150
#	17800
#	33812
#	51348
#	68233
#	82695
#	99514
#	115987
#	135896
#	154196
#
# Disc length: 2367 seconds
#
# Revision: 0
# Processed by: cddbd v1.5.2PL0 Copyright (c) Steve Scherf et al.
# Submitted via: EasyCDDAExtractor 10.0.2.1
#
DISCID=72093d0a
DTITLE=The Broken West - Now or Heaven
DYEAR=2008
DGENRE=Country
TTITLE0=Gwen, Now and Then
TTITLE1=Auctioneer
TTITLE2=Elm City
TTITLE3=Ambuscade
TTITLE4=Perfect Games
TTITLE5=House of Lies
TTITLE6=The Smartest Man Alive
TTITLE7=Got It Bad
TTITLE8=Terror for Two
TTITLE9=Embassy Row
EXTD=
EXTT0=
EXTT1=
EXTT2=
EXTT3=
EXTT4=
EXTT5=
EXTT6=
EXTT7=
EXTT8=
EXTT9=
PLAYORDER=
